<?xml version="1.0" encoding="UTF-8"?>
<svg width="48px" height="42px" viewBox="0 0 48 42" version="1.1" xmlns="http://www.w3.org/2000/svg" xmlns:xlink="http://www.w3.org/1999/xlink">
    <!-- Generator: Sketch 49.1 (51147) - http://www.bohemiancoding.com/sketch -->
    <title>calendar-icon copy 3</title>
    <desc>Created with Sketch.</desc>
    <defs></defs>
    <g id="Desktop" stroke="none" stroke-width="1" fill="none" fill-rule="evenodd">
        <g id="Homepage" transform="translate(-118.000000, -1200.000000)" fill="#285564" fill-rule="nonzero">
            <g id="calendar-icon-copy-3" transform="translate(118.000000, 1200.000000)">
                <path d="M45.5,6.01431981 L33.2,6.01431981 L33.2,2.50596659 C33.2,1.1026253 32.1,0 30.7,0 C29.3,0 28.2,1.1026253 28.2,2.50596659 L28.2,6.01431981 L19.8,6.01431981 L19.8,2.50596659 C19.8,1.1026253 18.7,0 17.3,0 C15.9,0 14.8,1.1026253 14.8,2.50596659 L14.8,6.01431981 L2.5,6.01431981 C1.1,6.01431981 0,7.11694511 0,8.5202864 L0,39.4940334 C0,40.8973747 1.1,42 2.5,42 L45.5,42 C46.9,42 48,40.8973747 48,39.4940334 L48,8.5202864 C48,7.11694511 46.9,6.01431981 45.5,6.01431981 Z M43,36.9880668 L5,36.9880668 L5,11.026253 L14.8,11.026253 L14.8,12.5298329 C14.8,13.9331742 15.9,15.0357995 17.3,15.0357995 C18.7,15.0357995 19.8,13.9331742 19.8,12.5298329 L19.8,11.026253 L28.2,11.026253 L28.2,12.5298329 C28.2,13.9331742 29.3,15.0357995 30.7,15.0357995 C32.1,15.0357995 33.2,13.9331742 33.2,12.5298329 L33.2,11.026253 L43,11.026253 L43,36.9880668 Z M10.6,19.0453461 L15.6,19.0453461 L15.6,24.0572792 L10.6,24.0572792 L10.6,19.0453461 Z M10.6,26.9642005 L15.6,26.9642005 L15.6,31.9761337 L10.6,31.9761337 L10.6,26.9642005 Z M21.5,19.0453461 L26.5,19.0453461 L26.5,24.0572792 L21.5,24.0572792 L21.5,19.0453461 Z M21.5,26.9642005 L26.5,26.9642005 L26.5,31.9761337 L21.5,31.9761337 L21.5,26.9642005 Z M32.4,19.0453461 L37.4,19.0453461 L37.4,24.0572792 L32.4,24.0572792 L32.4,19.0453461 Z M32.4,26.9642005 L37.4,26.9642005 L37.4,31.9761337 L32.4,31.9761337 L32.4,26.9642005 Z" id="Shape"></path>
            </g>
        </g>
    </g>
</svg>