<?xml version="1.0" encoding="UTF-8"?>
<svg width="24px" height="25px" viewBox="0 0 24 25" version="1.1" xmlns="http://www.w3.org/2000/svg" xmlns:xlink="http://www.w3.org/1999/xlink">
    <!-- Generator: Sketch 49.1 (51147) - http://www.bohemiancoding.com/sketch -->
    <title>gift-icon</title>
    <desc>Created with Sketch.</desc>
    <defs></defs>
    <g id="Mobile" stroke="none" stroke-width="1" fill="none" fill-rule="evenodd">
        <g id="Liste-de-mariage" transform="translate(-32.000000, -150.000000)" fill="#285564" fill-rule="nonzero">
            <g id="gift-icon" transform="translate(32.000000, 150.000000)">
                <path d="M4.59165957,6.63265306 C4.59165957,6.63265306 4.54059574,6.58163265 4.54059574,6.58163265 C4.43846809,6.42857143 4.38740426,6.2755102 4.2852766,6.12244898 C4.18314894,5.91836735 4.08102128,5.71428571 4.02995745,5.45918367 C3.92782979,5.10204082 3.82570213,4.74489796 3.82570213,4.33673469 C3.82570213,4.18367347 3.82570213,4.03061224 3.82570213,3.92857143 C3.82570213,3.57142857 3.92782979,3.21428571 4.02995745,2.85714286 C4.13208511,2.60204082 4.23421277,2.34693878 4.38740426,2.09183673 C4.6427234,1.73469388 4.94910638,1.37755102 5.30655319,1.12244898 C5.56187234,0.918367347 5.86825532,0.816326531 6.1746383,0.663265306 C6.58314894,0.510204082 6.99165957,0.459183673 7.45123404,0.459183673 C7.5533617,0.459183673 7.60442553,0.459183673 7.70655319,0.459183673 C8.01293617,0.459183673 8.26825532,0.510204082 8.5746383,0.56122449 C8.72782979,0.612244898 8.93208511,0.663265306 9.0852766,0.714285714 C9.18740426,0.765306122 9.34059574,0.816326531 9.4427234,0.867346939 C10.3108085,1.2755102 10.9746383,1.98979592 11.5363404,2.75510204 C11.6384681,2.90816327 11.7405957,3.06122449 11.8427234,3.21428571 C11.9959149,3.41836735 12.0980426,3.62244898 12.2001702,3.87755102 C12.2001702,3.92857143 12.251234,3.92857143 12.251234,3.97959184 C12.3022979,3.87755102 12.3533617,3.7755102 12.4044255,3.7244898 C12.5065532,3.52040816 12.6086809,3.36734694 12.7618723,3.16326531 C12.864,3.01020408 12.9661277,2.85714286 13.0682553,2.70408163 C13.6810213,1.8877551 14.4469787,1.17346939 15.3661277,0.765306122 C15.5193191,0.714285714 15.7235745,0.663265306 15.876766,0.612244898 C16.1320851,0.56122449 16.4384681,0.510204082 16.7448511,0.510204082 C16.7959149,0.510204082 16.8469787,0.510204082 16.9491064,0.510204082 C17.4086809,0.510204082 17.8171915,0.56122449 18.2257021,0.714285714 C18.5320851,0.816326531 18.8895319,0.969387755 19.1448511,1.17346939 C19.5022979,1.42857143 19.8086809,1.73469388 20.064,2.09183673 C20.2171915,2.34693878 20.370383,2.60204082 20.4725106,2.90816327 C20.5746383,3.21428571 20.676766,3.57142857 20.676766,3.92857143 C20.676766,4.08163265 20.676766,4.23469388 20.676766,4.43877551 C20.676766,4.79591837 20.5746383,5.10204082 20.4725106,5.45918367 C20.4214468,5.66326531 20.3193191,5.91836735 20.2171915,6.12244898 C20.1661277,6.2755102 20.064,6.42857143 19.9618723,6.58163265 C19.9108085,6.63265306 19.9108085,6.68367347 19.8597447,6.73469388 L22.6682553,6.73469388 C23.0257021,6.73469388 23.3320851,6.8877551 23.5874043,7.09183673 C23.8427234,7.34693878 23.9448511,7.65306122 23.9448511,8.01020408 C23.9448511,9.28571429 23.9448511,11.3265306 23.9448511,12.6020408 C23.9448511,12.9591837 23.7916596,13.2653061 23.5874043,13.5204082 C23.3320851,13.7755102 23.0257021,13.877551 22.6682553,13.877551 L21.9533617,13.877551 L21.9533617,23.3163265 C21.9533617,23.6734694 21.8001702,23.9795918 21.5448511,24.2346939 C21.2895319,24.4897959 20.9320851,24.5918367 20.5746383,24.5918367 C16.8469787,24.5918367 7.5533617,24.5918367 3.87676596,24.5918367 C3.51931915,24.5918367 3.16187234,24.4387755 2.90655319,24.2346939 C2.65123404,23.9795918 2.49804255,23.6734694 2.49804255,23.3163265 L2.49804255,13.7755102 L1.73208511,13.7755102 C1.3746383,13.7755102 1.06825532,13.622449 0.81293617,13.4183673 C0.557617021,13.1632653 0.455489362,12.8571429 0.455489362,12.5 C0.455489362,11.2244898 0.455489362,9.18367347 0.455489362,7.90816327 C0.455489362,7.55102041 0.608680851,7.24489796 0.81293617,6.98979592 C1.06825532,6.73469388 1.3746383,6.63265306 1.73208511,6.63265306 L4.59165957,6.63265306 Z M5.10229787,13.7755102 L5.10229787,21.9387755 L10.9746383,21.9387755 L10.9746383,13.7755102 L5.10229787,13.7755102 Z M13.5278298,13.7755102 L13.5278298,21.9387755 L19.4001702,21.9387755 L19.4001702,13.7755102 L13.5278298,13.7755102 Z M10.9746383,11.2244898 L10.9746383,9.18367347 L3.05974468,9.18367347 L3.05974468,11.2244898 L10.9746383,11.2244898 Z M21.4427234,9.18367347 L13.5278298,9.18367347 L13.5278298,11.2244898 L21.4427234,11.2244898 L21.4427234,9.18367347 Z M10.6682553,6.63265306 C10.5661277,6.42857143 10.5150638,6.2244898 10.4129362,6.02040816 C10.157617,5.45918367 9.85123404,4.84693878 9.49378723,4.33673469 C9.34059574,4.08163265 9.13634043,3.87755102 8.93208511,3.67346939 C8.77889362,3.52040816 8.62570213,3.36734694 8.42144681,3.26530612 C8.26825532,3.16326531 8.11506383,3.1122449 7.91080851,3.06122449 C7.80868085,3.06122449 7.70655319,3.06122449 7.60442553,3.06122449 C7.50229787,3.06122449 7.45123404,3.06122449 7.34910638,3.06122449 C7.09378723,3.1122449 6.83846809,3.16326531 6.6852766,3.36734694 C6.63421277,3.41836735 6.58314894,3.46938776 6.58314894,3.52040816 C6.53208511,3.57142857 6.53208511,3.67346939 6.48102128,3.7244898 C6.42995745,3.82653061 6.42995745,3.97959184 6.42995745,4.08163265 C6.42995745,4.23469388 6.42995745,4.3877551 6.48102128,4.54081633 C6.48102128,4.59183673 6.53208511,4.69387755 6.53208511,4.74489796 C6.73634043,5.25510204 7.09378723,5.6122449 7.5533617,5.91836735 C7.85974468,6.12244898 8.21719149,6.32653061 8.5746383,6.47959184 C8.62570213,6.47959184 8.67676596,6.53061224 8.72782979,6.53061224 L10.6682553,6.53061224 L10.6682553,6.63265306 Z M15.876766,6.63265306 C16.1320851,6.53061224 16.3363404,6.42857143 16.5405957,6.2755102 C16.7959149,6.12244898 17.051234,5.96938776 17.2554894,5.76530612 C17.6129362,5.45918367 17.9193191,5.05102041 18.0725106,4.59183673 C18.1235745,4.43877551 18.1235745,4.28571429 18.1235745,4.13265306 C18.1235745,4.08163265 18.1235745,4.03061224 18.1235745,3.97959184 C18.1235745,3.87755102 18.1235745,3.7755102 18.0725106,3.67346939 C18.0214468,3.57142857 18.0214468,3.52040816 17.970383,3.41836735 C17.9193191,3.36734694 17.9193191,3.31632653 17.8682553,3.26530612 C17.664,3.06122449 17.357617,3.01020408 17.1022979,2.95918367 C17.0001702,2.95918367 16.8469787,2.95918367 16.7448511,2.95918367 C16.6427234,2.95918367 16.5405957,3.01020408 16.4384681,3.01020408 C16.2852766,3.06122449 16.1320851,3.16326531 15.9788936,3.26530612 C15.7746383,3.41836735 15.6214468,3.57142857 15.4682553,3.7244898 C15.4171915,3.7755102 15.3661277,3.87755102 15.264,3.92857143 C15.1618723,4.03061224 15.1108085,4.13265306 15.0597447,4.23469388 C14.651234,4.79591837 14.3448511,5.45918367 14.0384681,6.07142857 C13.9874043,6.2244898 13.9363404,6.32653061 13.8852766,6.47959184 L15.876766,6.47959184 L15.876766,6.63265306 Z" id="Shape"></path>
            </g>
        </g>
    </g>
</svg>